HIERARCHY
ROOT Hips
{
    OFFSET 0.000000 0.000000 0.000000
    CHANNELS 6 Xposition Yposition Zposition Zrotation Xrotation Yrotation
    JOINT Spine
    {
        OFFSET -0.000000 8.249566 0.000000
        CHANNELS 3 Zrotation Xrotation Yrotation
        JOINT Spine1
        {
            OFFSET -0.000000 22.751984 0.000000
            CHANNELS 3 Zrotation Xrotation Yrotation
            JOINT Neck
            {
                OFFSET -0.000000 22.658548 2.059868
                CHANNELS 3 Zrotation Xrotation Yrotation
                JOINT Head
                {
                    OFFSET -0.000000 14.084625 -2.012089
                    CHANNELS 3 Zrotation Xrotation Yrotation
                    End Site
                    {
                        OFFSET -0.000000 25.151115 0.000000
                    }
                }
            }
            JOINT LeftShoulder
            {
                OFFSET 4.014710 20.418900 0.142539
                CHANNELS 3 Zrotation Xrotation Yrotation
                JOINT LeftArm
                {
                    OFFSET 12.409162 0.000000 0.000000
                    CHANNELS 3 Zrotation Xrotation Yrotation
                    JOINT LeftForeArm
                    {
                        OFFSET 32.111938 0.000000 0.000000
                        CHANNELS 3 Zrotation Xrotation Yrotation
                        JOINT LeftHand
                        {
                            OFFSET 25.320286 0.000000 0.000000
                            CHANNELS 3 Zrotation Xrotation Yrotation
                            End Site
                            {
                                OFFSET 15.090670 0.000000 0.000000
                            }
                        }
                    }
                }
            }
            JOINT RightShoulder
            {
                OFFSET -4.019371 20.418900 0.142539
                CHANNELS 3 Zrotation Xrotation Yrotation
                JOINT RightArm
                {
                    OFFSET -12.409162 0.000000 0.000000
                    CHANNELS 3 Zrotation Xrotation Yrotation
                    JOINT RightForeArm
                    {
                        OFFSET -32.111938 0.000000 0.000000
                        CHANNELS 3 Zrotation Xrotation Yrotation
                        JOINT RightHand
                        {
                            OFFSET -25.320286 0.000000 0.000000
                            CHANNELS 3 Zrotation Xrotation Yrotation
                            End Site
                            {
                                OFFSET -15.090670 0.000000 0.000000
                            }
                        }
                    }
                }
            }
        }
    }
    JOINT LeftUpLeg
    {
        OFFSET 10.060447 0.000000 0.000000
        CHANNELS 3 Zrotation Xrotation Yrotation
        JOINT LeftLeg
        {
            OFFSET -0.000000 -49.683781 0.000000
            CHANNELS 3 Zrotation Xrotation Yrotation
            JOINT LeftFoot
            {
                OFFSET -0.000000 -37.035061 0.000000
                CHANNELS 3 Zrotation Xrotation Yrotation
                JOINT LeftToeBase
                {
                    OFFSET -0.000000 -6.539289 15.090670
                    CHANNELS 3 Zrotation Xrotation Yrotation
                    End Site
                    {
                        OFFSET -0.000000 0.000000 4.024179
                    }
                }
            }
        }
    }
    JOINT RightUpLeg
    {
        OFFSET -10.060447 0.000000 0.000000
        CHANNELS 3 Zrotation Xrotation Yrotation
        JOINT RightLeg
        {
            OFFSET -0.000000 -49.683781 0.000000
            CHANNELS 3 Zrotation Xrotation Yrotation
            JOINT RightFoot
            {
                OFFSET -0.000000 -37.035061 0.000000
                CHANNELS 3 Zrotation Xrotation Yrotation
                JOINT RightToeBase
                {
                    OFFSET -0.000000 -6.539289 15.090670
                    CHANNELS 3 Zrotation Xrotation Yrotation
                    End Site
                    {
                        OFFSET -0.000000 0.000000 4.024179
                    }
                }
            }
        }
    }
}
MOTION
Frames:    4
Frame Time:    0.008333
-17.335022    91.330971    102.778923    -23.407852    -33.202488    128.901917    2.020071    7.276412    1.408900    -1.262892    16.108141    1.715867    7.940981    -1.435672    8.892753    -15.122905    -25.902691    2.491952    13.706465    1.131994    -11.319001    -43.823364    29.695391    -38.576160    11.384028    -29.636377    -56.269924    19.660780    -26.318836    -13.534163    -3.483396    4.227189    3.134145    41.335629    36.487885    32.378639    -28.529757    -24.221554    50.622032    0.445384    -11.018337    11.474240    8.975314    -73.344269    6.499936    -7.543522    51.807419    5.348579    7.585099    -6.057333    11.013741    0.000000    0.000000    0.000000    -12.604487    -54.320065    -8.382214    -6.462039    58.413513    3.910072    -2.196663    8.826393    -23.545568    0.000000    0.000000    0.000000    
-17.174431    91.350998    102.631424    -23.023302    -33.295715    129.702545    2.029562    7.235933    1.435316    -1.225705    16.186546    1.737792    8.283693    -1.951646    9.492791    -16.104872    -24.663811    2.835179    13.623384    1.172356    -11.368048    -43.746876    29.641129    -38.576183    11.874619    -29.592686    -55.815720    18.401892    -26.009981    -13.928761    -3.478914    4.190132    3.110081    41.301147    36.389942    32.357876    -28.574053    -24.308464    50.978897    0.273052    -10.995393    11.624027    7.813339    -73.136444    5.355146    -7.424959    51.814888    5.070434    7.479118    -6.069828    10.865030    0.000000    0.000000    0.000000    -12.554827    -54.803131    -8.623567    -7.011624    59.430592    4.809670    -2.523911    7.539413    -21.224997    0.000000    0.000000    0.000000    
-17.003796    91.381279    102.481148    -22.658966    -33.389217    130.502075    2.052871    7.213309    1.429008    -1.218520    16.177601    1.731420    8.036436    -1.804228    9.646645    -16.097456    -24.729717    3.041466    13.509214    1.309588    -11.365690    -43.661182    29.534010    -38.538597    11.034429    -29.880840    -56.470184    19.397440    -26.692257    -13.555182    -3.532307    4.223170    3.116746    41.321781    36.298985    32.400887    -28.487461    -24.410519    51.448490    -0.705058    -11.100911    11.649719    6.698126    -72.929276    4.307511    -7.258566    51.821072    4.659033    7.434696    -6.067938    10.560534    0.000000    0.000000    0.000000    -12.662539    -55.389946    -8.709614    -6.562012    60.273254    4.492419    -2.717576    6.898897    -18.992393    0.000000    0.000000    0.000000    
-16.823944    91.399155    102.331352    -22.216558    -33.455688    131.313232    2.092519    7.245956    1.454206    -1.225744    16.206934    1.761085    8.025837    -1.814312    10.037064    -16.543385    -24.497114    3.324394    13.519358    1.285918    -11.395061    -43.775211    29.508432    -38.421707    10.978004    -29.972973    -56.483498    19.527470    -26.882797    -13.911580    -3.485553    4.197713    3.085561    41.190125    36.336651    32.428738    -28.375921    -24.593515    51.938660    -1.929684    -11.323424    11.537923    5.778852    -72.635666    3.416304    -7.147034    51.772427    4.688752    7.554782    -6.132442    10.055568    0.000000    0.000000    0.000000    -12.476349    -55.859772    -8.776556    -6.902654    61.079441    5.691033    -1.620434    5.157195    -17.843288    0.000000    0.000000    0.000000    
